<svg width="100%" height="100%" viewBox="0 0 455 58" fill="none">
    <g filter="url(#filter0_d)">
    <path d="M7.125 44.625H8.5L9.875 40.5H7.8125L7.125 44.625ZM4.375 44.625H5.75L7.125 40.5H5.0625L4.375 44.625Z" fill="white"/>
    <path d="M49.9562 40.5H52.3625L43.425 57H40.675L31.7375 40.5H34.1437L42.05 55.625L49.9562 40.5Z" fill="white"/>
    <path d="M74.9125 40.5H76.975V57H74.9125V40.5Z" fill="white"/>
    <path d="M100.9 40.5H113.296C114.321 40.5 115.184 40.5465 115.885 40.6396C116.594 40.7256 117.178 40.8581 117.636 41.0371C118.095 41.2161 118.446 41.4382 118.689 41.7031C118.94 41.9681 119.122 42.2796 119.237 42.6377C119.351 42.9958 119.416 43.3968 119.43 43.8408C119.452 44.2848 119.462 44.7754 119.462 45.3125C119.462 45.8711 119.448 46.3867 119.42 46.8594C119.398 47.332 119.316 47.7617 119.172 48.1484C119.036 48.528 118.814 48.8646 118.506 49.1582C118.206 49.4447 117.772 49.6846 117.207 49.8779C116.648 50.0713 115.935 50.2181 115.069 50.3184C114.21 50.4186 113.15 50.4688 111.889 50.4688H102.962V57H100.9V40.5ZM102.962 48.75H111.889C112.806 48.75 113.576 48.7357 114.199 48.707C114.829 48.6712 115.348 48.6104 115.756 48.5244C116.165 48.4385 116.48 48.3167 116.702 48.1592C116.924 48.0016 117.085 47.7939 117.185 47.5361C117.293 47.2783 117.353 46.9704 117.368 46.6123C117.389 46.2471 117.4 45.8138 117.4 45.3125C117.4 44.847 117.389 44.446 117.368 44.1094C117.353 43.7728 117.293 43.4899 117.185 43.2607C117.085 43.0316 116.924 42.849 116.702 42.7129C116.48 42.5768 116.165 42.473 115.756 42.4014C115.348 42.3226 114.829 42.2725 114.199 42.251C113.576 42.2295 112.806 42.2188 111.889 42.2188H102.962V48.75Z" fill="white"/>
    <path d="M142.012 40.5H154.409C155.433 40.5 156.296 40.5465 156.998 40.6396C157.707 40.7256 158.29 40.8581 158.749 41.0371C159.207 41.2161 159.558 41.4382 159.802 41.7031C160.052 41.9681 160.235 42.2796 160.349 42.6377C160.464 42.9958 160.528 43.3968 160.543 43.8408C160.564 44.2848 160.575 44.7754 160.575 45.3125C160.575 45.8711 160.561 46.3867 160.532 46.8594C160.511 47.332 160.428 47.7617 160.285 48.1484C160.149 48.528 159.927 48.8646 159.619 49.1582C159.318 49.4447 158.885 49.6846 158.319 49.8779C157.761 50.0713 157.048 50.2181 156.181 50.3184C155.322 50.4186 154.262 50.4688 153.002 50.4688H144.075V57H142.012V40.5ZM144.075 48.75H153.002C153.918 48.75 154.688 48.7357 155.311 48.707C155.942 48.6712 156.461 48.6104 156.869 48.5244C157.277 48.4385 157.592 48.3167 157.814 48.1592C158.036 48.0016 158.197 47.7939 158.298 47.5361C158.405 47.2783 158.466 46.9704 158.48 46.6123C158.502 46.2471 158.512 45.8138 158.512 45.3125C158.512 44.847 158.502 44.446 158.48 44.1094C158.466 43.7728 158.405 43.4899 158.298 43.2607C158.197 43.0316 158.036 42.849 157.814 42.7129C157.592 42.5768 157.277 42.473 156.869 42.4014C156.461 42.3226 155.942 42.2725 155.311 42.251C154.688 42.2295 153.918 42.2188 153.002 42.2188H144.075V48.75Z" fill="white"/>
    <path d="M182.438 40.5H185.188L192.75 48.5781L200.312 40.5H203.062L193.781 50.125V57H191.719V50.125L182.438 40.5Z" fill="white"/>
    <path d="M225.87 44.625H227.245L228.62 40.5H226.558L225.87 44.625ZM229.308 44.625H230.683L232.058 40.5H229.995L229.308 44.625Z" fill="white"/>
    <path d="M290.306 47.7188C291.438 47.7188 292.408 47.7653 293.217 47.8584C294.027 47.9515 294.707 48.0911 295.258 48.2773C295.817 48.4564 296.261 48.682 296.59 48.9541C296.92 49.2262 297.174 49.5378 297.353 49.8887C297.532 50.2324 297.647 50.6191 297.697 51.0488C297.754 51.4785 297.783 51.944 297.783 52.4453C297.783 52.9466 297.736 53.4193 297.643 53.8633C297.557 54.3001 297.4 54.7012 297.171 55.0664C296.941 55.4316 296.63 55.7575 296.236 56.0439C295.842 56.3304 295.341 56.5739 294.732 56.7744C294.123 56.9749 293.389 57.1253 292.53 57.2256C291.678 57.333 290.679 57.3867 289.533 57.3867H286.783C285.752 57.3867 284.849 57.3473 284.076 57.2686C283.302 57.1898 282.636 57.0716 282.078 56.9141C281.519 56.7493 281.057 56.5452 280.692 56.3018C280.327 56.0511 280.033 55.7611 279.811 55.4316C279.596 55.0951 279.446 54.7155 279.36 54.293C279.274 53.8633 279.231 53.3906 279.231 52.875H281.294C281.294 53.5195 281.387 54.0244 281.573 54.3896C281.759 54.7549 282.067 55.0306 282.497 55.2168C282.926 55.3958 283.489 55.5104 284.183 55.5605C284.885 55.6035 285.752 55.625 286.783 55.625H289.533C290.736 55.625 291.735 55.5677 292.53 55.4531C293.325 55.3385 293.959 55.1559 294.431 54.9053C294.904 54.6546 295.237 54.3288 295.43 53.9277C295.624 53.5195 295.72 53.0254 295.72 52.4453C295.72 51.8652 295.652 51.3818 295.516 50.9951C295.387 50.6084 295.126 50.3005 294.732 50.0713C294.345 49.8421 293.797 49.681 293.088 49.5879C292.379 49.4876 291.452 49.4375 290.306 49.4375H287.47C286.21 49.4375 285.129 49.391 284.226 49.2979C283.331 49.2048 282.579 49.0723 281.97 48.9004C281.362 48.7214 280.875 48.5029 280.509 48.2451C280.144 47.9801 279.865 47.6794 279.671 47.3428C279.485 47.0062 279.364 46.6338 279.306 46.2256C279.249 45.8102 279.22 45.3626 279.22 44.8828C279.22 44.3815 279.263 43.916 279.349 43.4863C279.442 43.0566 279.611 42.6699 279.854 42.3262C280.098 41.9753 280.431 41.6637 280.853 41.3916C281.276 41.1195 281.816 40.8939 282.475 40.7148C283.141 40.5286 283.94 40.389 284.871 40.2959C285.802 40.2028 286.897 40.1562 288.158 40.1562H290.22C291.252 40.1562 292.154 40.1956 292.927 40.2744C293.701 40.346 294.367 40.4642 294.925 40.6289C295.484 40.7865 295.946 40.987 296.311 41.2305C296.684 41.4668 296.977 41.7533 297.192 42.0898C297.414 42.4193 297.568 42.7952 297.654 43.2178C297.74 43.6403 297.783 44.1094 297.783 44.625H295.72C295.72 43.9805 295.627 43.4756 295.441 43.1104C295.255 42.7451 294.947 42.473 294.517 42.2939C294.087 42.1077 293.522 41.9932 292.82 41.9502C292.118 41.9001 291.252 41.875 290.22 41.875H288.158C286.783 41.875 285.651 41.9251 284.763 42.0254C283.875 42.1185 283.173 42.2796 282.658 42.5088C282.142 42.738 281.784 43.0459 281.584 43.4326C281.383 43.8193 281.283 44.3027 281.283 44.8828C281.283 45.2409 281.308 45.5596 281.358 45.8389C281.408 46.1182 281.508 46.3652 281.659 46.5801C281.816 46.7878 282.035 46.9632 282.314 47.1064C282.593 47.2497 282.962 47.3678 283.421 47.4609C283.879 47.554 284.437 47.6221 285.096 47.665C285.762 47.7008 286.554 47.7188 287.47 47.7188H290.306Z" fill="white"/>
    <path d="M338.208 40.5H340.27V57H338.208V49.4375H323.083V57H321.02V40.5H323.083V47.7188H338.208V40.5Z" fill="white"/>
    <path d="M364.195 40.5H366.258V57H364.195V40.5Z" fill="white"/>
    <path d="M409.089 57H407.027V53.9062C407.027 53.4049 407.016 52.9753 406.994 52.6172C406.98 52.252 406.919 51.9404 406.812 51.6826C406.711 51.4248 406.55 51.2171 406.328 51.0596C406.106 50.902 405.791 50.7803 405.383 50.6943C404.975 50.6084 404.456 50.5511 403.825 50.5225C403.202 50.4867 402.432 50.4688 401.516 50.4688H392.245V57H390.183V40.5H401.86C403.12 40.5 404.18 40.5465 405.039 40.6396C405.906 40.7256 406.618 40.8581 407.177 41.0371C407.743 41.2161 408.176 41.4382 408.477 41.7031C408.785 41.9681 409.007 42.2796 409.143 42.6377C409.286 42.9958 409.368 43.3968 409.39 43.8408C409.418 44.2848 409.433 44.7754 409.433 45.3125C409.433 46 409.383 46.6051 409.282 47.1279C409.189 47.6436 409.028 48.084 408.799 48.4492C408.57 48.8145 408.265 49.1081 407.886 49.3301C407.506 49.5449 407.03 49.6953 406.457 49.7812C407.03 49.8672 407.488 50.0176 407.832 50.2324C408.176 50.4473 408.441 50.7266 408.627 51.0703C408.813 51.4141 408.935 51.8223 408.992 52.2949C409.057 52.7676 409.089 53.3047 409.089 53.9062V57ZM392.245 48.75H401.86C402.776 48.75 403.546 48.7357 404.169 48.707C404.799 48.6712 405.319 48.6104 405.727 48.5244C406.135 48.4385 406.45 48.3167 406.672 48.1592C406.894 48.0016 407.055 47.7939 407.155 47.5361C407.263 47.2783 407.324 46.9704 407.338 46.6123C407.36 46.2471 407.37 45.8138 407.37 45.3125C407.37 44.847 407.36 44.446 407.338 44.1094C407.324 43.7728 407.263 43.4899 407.155 43.2607C407.055 43.0316 406.894 42.849 406.672 42.7129C406.45 42.5768 406.135 42.473 405.727 42.4014C405.319 42.3226 404.799 42.2725 404.169 42.251C403.546 42.2295 402.776 42.2188 401.86 42.2188H392.245V48.75Z" fill="white"/>
    <path d="M450.545 40.5V42.2188H442.295V57H440.233V42.2188H431.983V40.5H450.545Z" fill="white"/>
    </g>
    <defs>
    <filter id="filter0_d" x="0.375" y="0.15625" width="454.17" height="57.2305" filterUnits="userSpaceOnUse" color-interpolation-filters="sRGB">
    <feFlood flood-opacity="0" result="BackgroundImageFix"/>
    <feColorMatrix in="SourceAlpha" type="matrix" values="0 0 0 0 0 0 0 0 0 0 0 0 0 0 0 0 0 0 127 0"/>
    <feOffset dy="-36"/>
    <feGaussianBlur stdDeviation="2"/>
    <feColorMatrix type="matrix" values="0 0 0 0 0 0 0 0 0 0 0 0 0 0 0 0 0 0 1 0"/>
    <feBlend mode="normal" in2="BackgroundImageFix" result="effect1_dropShadow"/>
    <feBlend mode="normal" in="SourceGraphic" in2="effect1_dropShadow" result="shape"/>
    </filter>
    </defs>
</svg>
